<svg xmlns="http://www.w3.org/2000/svg" width="1200" height="520" viewBox="0 0 1200 520" role="img" aria-label="About hero background">
  <defs>
    <linearGradient id="a" x1="0" y1="0" x2="1" y2="1">
      <stop offset="0" stop-color="#0B3A66" stop-opacity="0.20"/>
      <stop offset="1" stop-color="#1F8A2A" stop-opacity="0.14"/>
    </linearGradient>
    <radialGradient id="b" cx="25%" cy="35%" r="70%">
      <stop offset="0" stop-color="#0B3A66" stop-opacity="0.22"/>
      <stop offset="1" stop-color="#0B3A66" stop-opacity="0"/>
    </radialGradient>
  </defs>
  <rect width="1200" height="520" fill="#ffffff"/>
  <rect width="1200" height="520" fill="url(#a)"/>
  <circle cx="260" cy="210" r="240" fill="url(#b)"/>
  <circle cx="940" cy="330" r="260" fill="url(#b)"/>
  <path d="M0 330c160-70 320 40 520-40s290-200 680-70v300H0V330z" fill="#0B3A66" fill-opacity="0.06"/>
  <path d="M0 250c140-70 280-30 410-80s230-90 370-30 220 120 220 160-80 120-180 120-220-50-320-10-250 70-500 10V250z" fill="#1F8A2A" fill-opacity="0.05"/>
</svg>

