<svg xmlns="http://www.w3.org/2000/svg" width="1200" height="800" viewBox="0 0 1200 800" role="img" aria-label="Abstract background">
  <defs>
    <linearGradient id="g" x1="0" y1="0" x2="1" y2="1">
      <stop offset="0" stop-color="#0B3A66" stop-opacity="0.20"/>
      <stop offset="1" stop-color="#1F8A2A" stop-opacity="0.12"/>
    </linearGradient>
    <radialGradient id="r" cx="30%" cy="30%" r="70%">
      <stop offset="0" stop-color="#0B3A66" stop-opacity="0.25"/>
      <stop offset="1" stop-color="#0B3A66" stop-opacity="0"/>
    </radialGradient>
  </defs>
  <rect width="1200" height="800" fill="white"/>
  <rect x="0" y="0" width="1200" height="800" fill="url(#g)"/>
  <circle cx="260" cy="220" r="260" fill="url(#r)"/>
  <circle cx="920" cy="520" r="320" fill="url(#r)"/>
  <path d="M1200 120c-180 120-360 60-540 160S340 480 0 380v420h1200V120z" fill="#0B3A66" fill-opacity="0.06"/>
  <path d="M0 240c160-80 320-40 480-100 160-60 320-170 520-80s240 200 200 320-220 200-380 210-260-70-420-20-260 80-400 40V240z" fill="#1F8A2A" fill-opacity="0.05"/>
</svg>

