<svg xmlns="http://www.w3.org/2000/svg" width="800" height="300" viewBox="0 0 800 300" role="img" aria-label="Service card background">
  <defs>
    <linearGradient id="bg" x1="0" y1="0" x2="1" y2="1">
      <stop offset="0" stop-color="#0B3A66" stop-opacity="0.18"/>
      <stop offset="1" stop-color="#1F8A2A" stop-opacity="0.12"/>
    </linearGradient>
    <radialGradient id="glow" cx="20%" cy="30%" r="70%">
      <stop offset="0" stop-color="#0B3A66" stop-opacity="0.22"/>
      <stop offset="1" stop-color="#0B3A66" stop-opacity="0"/>
    </radialGradient>
  </defs>
  <rect width="800" height="300" fill="white"/>
  <rect width="800" height="300" fill="url(#bg)"/>
  <circle cx="160" cy="110" r="140" fill="url(#glow)"/>
  <circle cx="640" cy="220" r="160" fill="url(#glow)"/>
  <path d="M0 210c140-40 220 40 360 10s220-120 440-50v130H0V210z" fill="#0B3A66" fill-opacity="0.06"/>
  <path d="M0 140c120-60 260-20 360-70s190-60 280-10 160 90 160 120-60 90-140 90-170-40-260-10-220 60-400 10V140z" fill="#1F8A2A" fill-opacity="0.05"/>
</svg>

